<?xml version="1.0" standalone="no"?>
<!DOCTYPE svg PUBLIC "-//W3C//DTD SVG 20010904//EN"
 "http://www.w3.org/TR/2001/REC-SVG-20010904/DTD/svg10.dtd">
<svg version="1.0" xmlns="http://www.w3.org/2000/svg"
 width="1199.000000pt" height="619.000000pt" viewBox="0 0 1199.000000 619.000000"
 preserveAspectRatio="xMidYMid meet">

<g transform="translate(0.000000,619.000000) scale(0.100000,-0.100000)"
fill="#000000" stroke="none">
<path d="M7247 5411 l-4188 -587 -859 -1093 c-473 -602 -859 -1096 -857 -1097
1 -2 416 148 922 331 l920 334 1068 156 c588 86 1071 155 1073 153 1 -2 -1083
-773 -2410 -1713 -1328 -941 -2408 -1711 -2401 -1713 19 -5 7989 867 8002 876
15 9 1715 2173 1711 2177 -2 2 -417 -145 -923 -327 l-920 -330 -1050 -154
c-577 -84 -1060 -155 -1073 -157 -13 -3 -20 -1 -15 3 4 5 1165 828 2578 1831
1414 1002 2594 1839 2624 1860 l54 39 -34 -1 c-19 -1 -1919 -265 -4222 -588z
m3268 188 c4 -12 3 -25 -2 -29 -4 -4 -469 -139 -1033 -299 -926 -263 -1121
-321 -1040 -306 54 10 1293 166 1295 163 2 -2 6 -14 9 -28 6 -23 -132 -122
-2284 -1640 -1259 -888 -2289 -1617 -2290 -1620 0 -3 734 101 1632 232 l1631
238 501 180 c275 99 501 178 503 176 3 -3 -1021 -1312 -1051 -1344 -8 -8
-1036 -124 -3217 -362 -1762 -192 -3221 -352 -3241 -355 -34 -5 -38 -3 -44 21
-4 16 -2 29 5 34 7 4 428 186 936 406 508 219 923 399 922 401 -1 1 -333 -93
-737 -208 -672 -191 -736 -207 -747 -192 -7 9 -13 22 -13 27 1 6 936 670 2080
1476 1143 806 2073 1466 2067 1468 -7 1 -748 -105 -1647 -237 l-1635 -239
-484 -177 c-266 -96 -485 -174 -487 -172 -9 8 1060 1357 1075 1358 9 0 1640
236 3626 523 1986 288 3622 524 3637 525 19 1 29 -5 33 -20z"/>
</g>
</svg>
